<?xml version="1.0" encoding="utf-8"?>
<!-- Generator: Adobe Illustrator 15.0.0, SVG Export Plug-In . SVG Version: 6.00 Build 0)  -->
<!DOCTYPE svg PUBLIC "-//W3C//DTD SVG 1.0//EN" "http://www.w3.org/TR/2001/REC-SVG-20010904/DTD/svg10.dtd">
<svg version="1.0" id="Layer_3_1_" xmlns="http://www.w3.org/2000/svg" xmlns:xlink="http://www.w3.org/1999/xlink" x="0px" y="0px"
	 width="195px" height="40px" viewBox="0 0 195 40" style="enable-background:new 0 0 195 40;" xml:space="preserve">
<style type="text/css">
<![CDATA[
	.st0{fill:#54B948;}
	.st1{fill:#24282B;}
	.st2{fill:url(#SVGID_1_);}
	.st3{fill:url(#SVGID_2_);}
	.st4{fill:url(#SVGID_3_);}
	.st5{fill:url(#SVGID_4_);}
	.st6{fill:url(#SVGID_5_);}
	.st7{fill:url(#SVGID_6_);}
	.st8{fill:url(#SVGID_7_);}
	.st9{fill:url(#SVGID_8_);}
	.st10{fill:#C9CACC;}
	.st11{fill:#FDB913;}
	.st12{fill:#FFFFFF;}
	.st13{fill:#CE4753;}
	.st14{fill:#00BCE4;}
]]>
</style>
<g>
	<rect y="-0.5" class="st1" width="195" height="42"/>
	<rect x="58" y="4.5" class="st12" width="2" height="27"/>
	<path class="st12" d="M83.4,31.5h-2.6l-8.7-10H65v10h-2v-27c3,0,7.6,0,11.3,0c5.5,0,8.3,4,8.3,8.2c0,4.3-2.7,8.4-8.2,8.4L83.4,31.5
		z M65,19.5h9.1c4.4,0,6.4-2.8,6.4-6.5c0-3.1-2-6.5-6.2-6.5H65V19.5z"/>
	<rect x="86" y="4.5" class="st12" width="2" height="27"/>
	<path class="st12" d="M110.2,9.8c-1.9-3.1-5-3.5-7.9-3.6c-3.1,0-7.9,1.2-7.9,5.3c0,3.3,3.6,4.2,8,5c5,1,10.2,1.9,10.2,7.6
		c0,6-6,7.4-10.3,7.4c-4.1,0-8.8-1.7-10.7-5.8l1.8-0.9c1.6,3.2,5.8,4.8,9,4.8c3.2,0,8.3-0.9,8.3-5.5c0-3.9-4.3-4.8-8.6-5.7
		c-4.8-1-9.7-1.9-9.7-6.8c-0.1-5.5,5.7-7.4,9.9-7.4c3.7,0,6.9,0.6,9.6,4.5L110.2,9.8z"/>
	<polygon class="st12" points="153,10.5 141,10.5 141,15.5 149,15.5 149,21.5 141,21.5 141,25.5 153,25.5 153,31.5 135,31.5 
		135,4.5 153,4.5 	"/>
	<polygon class="st12" points="169,4.5 169,10.5 164,10.5 164,31.5 158,31.5 158,10.5 154,10.5 154,4.5 	"/>
	<path class="st12" d="M131.6,16.1c-0.4-0.4-0.9-0.8-1.4-1.2c0.6-0.9,0.8-2.1,0.8-3.2c0-0.1,0-0.3,0-0.4c0-3.8-2.8-6.8-6.6-6.8
		c-0.1,0-0.4,0-0.5,0H116v27h8.8h1c5.8,0,8.2-6.2,8.2-9.7C134.1,19.5,133.1,17.6,131.6,16.1z M122,10.5h2c1,0,1.8,1.4,1.8,2.5
		s-0.8,2.5-1.8,2.5h-2V10.5z M125,25.5h-3v-7h3c1.6,0,3,1.6,3,3.5C128,23.8,126.7,25.5,125,25.5z"/>
	<rect x="25" y="32.5" class="st14" width="3" height="3"/>
	<rect x="31" y="32.5" class="st13" width="3" height="3"/>
	<rect x="37" y="32.5" class="st10" width="3" height="3"/>
	<rect x="43" y="32.5" class="st11" width="3" height="3"/>
	<rect x="49" y="32.5" class="st0" width="3" height="3"/>
	<path class="st12" d="M50.5,4.5H45c-3.6,0-6,2.4-6,6v4h-1v-4c0-3.6-2.4-6-6-6h-4.5H25V6v4.5c0,3.6,3.4,6,7,6h4v1h-4
		c-3.6,0-7,2.4-7,6V28v3.5h2.5H32c3.6,0,6-4.4,6-8v-4h1v4c0,3.6,2.4,8,6,8h5.5H52V28v-4.5c0-3.6-2.4-6-6-6h-5v-1h5c3.6,0,6-2.4,6-6
		V6V4.5H50.5z M36,23c0,2.8-2.2,5.5-5,5.5h-4V24c0-2.8,2.2-4.5,5-4.5h4V23z M36,14.5h-4c-2.8,0-5-1.7-5-4.5V6.5h4c2.8,0,5,1.7,5,4.5
		V14.5z M39,17.5h-1v-1h1V17.5z M45,19.5c2.8,0,5,1.7,5,4.5v4.5h-4c-2.8,0-5-2.7-5-5.5v-3.5H45z M50,10c0,2.8-2.2,4.5-5,4.5h-4V11
		c0-2.8,2.2-4.5,5-4.5h4V10z"/>
	
		<linearGradient id="SVGID_1_" gradientUnits="userSpaceOnUse" x1="555.5" y1="-208.0005" x2="556.5" y2="-208.0005" gradientTransform="matrix(-4.371139e-08 1 -1 -4.371139e-08 -171 -541.9683)">
		<stop  offset="0" style="stop-color:#FFFFFF"/>
		<stop  offset="0.4" style="stop-color:#FFFFFF"/>
		<stop  offset="1" style="stop-color:#929497"/>
	</linearGradient>
	<rect x="36" y="13.5" class="st2" width="2" height="1"/>
	
		<linearGradient id="SVGID_2_" gradientUnits="userSpaceOnUse" x1="-195.4995" y1="208" x2="-194.4995" y2="208" gradientTransform="matrix(-4.371139e-08 -1 1 -4.371139e-08 -171 -178.0308)">
		<stop  offset="0" style="stop-color:#FFFFFF"/>
		<stop  offset="0.4" style="stop-color:#FFFFFF"/>
		<stop  offset="1" style="stop-color:#929497"/>
	</linearGradient>
	<rect x="36" y="16.5" class="st3" width="2" height="1"/>
	
		<linearGradient id="SVGID_3_" gradientUnits="userSpaceOnUse" x1="-34.2549" y1="-386.7939" x2="-33.2549" y2="-386.7939" gradientTransform="matrix(-0.9708 0 0 -0.9708 8.7407 -359.9997)">
		<stop  offset="0" style="stop-color:#FFFFFF"/>
		<stop  offset="0.4" style="stop-color:#FFFFFF"/>
		<stop  offset="1" style="stop-color:#929497"/>
	</linearGradient>
	<rect x="41" y="14.5" class="st4" width="1" height="2"/>
	
		<linearGradient id="SVGID_4_" gradientUnits="userSpaceOnUse" x1="388" y1="375.5" x2="389" y2="375.5" gradientTransform="matrix(1 0 0 1 -349.9688 -360)">
		<stop  offset="0" style="stop-color:#FFFFFF"/>
		<stop  offset="0.4" style="stop-color:#FFFFFF"/>
		<stop  offset="1" style="stop-color:#929497"/>
	</linearGradient>
	<rect x="38" y="14.5" class="st5" width="1" height="2"/>
	
		<linearGradient id="SVGID_5_" gradientUnits="userSpaceOnUse" x1="-41.8662" y1="-400.5337" x2="-40.8662" y2="-400.5337" gradientTransform="matrix(-0.9375 0 0 -0.9375 -0.2812 -357)">
		<stop  offset="0" style="stop-color:#FFFFFF"/>
		<stop  offset="0.4" style="stop-color:#FFFFFF"/>
		<stop  offset="1" style="stop-color:#929497"/>
	</linearGradient>
	<rect x="38" y="17.5" class="st6" width="1" height="2"/>
	
		<linearGradient id="SVGID_6_" gradientUnits="userSpaceOnUse" x1="388" y1="375.5" x2="389" y2="375.5" gradientTransform="matrix(1 0 0 1 -352.9688 -357)">
		<stop  offset="0" style="stop-color:#FFFFFF"/>
		<stop  offset="0.4" style="stop-color:#FFFFFF"/>
		<stop  offset="1" style="stop-color:#929497"/>
	</linearGradient>
	<rect x="35" y="17.5" class="st7" width="1" height="2"/>
	
		<linearGradient id="SVGID_7_" gradientUnits="userSpaceOnUse" x1="567.5938" y1="-214.6973" x2="568.5938" y2="-214.6973" gradientTransform="matrix(-4.234541e-08 0.9688 -0.9688 -4.234541e-08 -167.9991 -533.379)">
		<stop  offset="0" style="stop-color:#FFFFFF"/>
		<stop  offset="0.4" style="stop-color:#FFFFFF"/>
		<stop  offset="1" style="stop-color:#929497"/>
	</linearGradient>
	<rect x="39" y="16.5" class="st8" width="2" height="1"/>
	
		<linearGradient id="SVGID_8_" gradientUnits="userSpaceOnUse" x1="-195.6875" y1="208.1035" x2="-194.6865" y2="208.1035" gradientTransform="matrix(-4.369004e-08 -0.9995 0.9995 -4.369004e-08 -167.9994 -175.1192)">
		<stop  offset="0" style="stop-color:#FFFFFF"/>
		<stop  offset="0.4" style="stop-color:#FFFFFF"/>
		<stop  offset="1" style="stop-color:#929497"/>
	</linearGradient>
	<rect x="39" y="19.5" class="st9" width="2" height="1"/>
</g>
</svg>
