<?xml version="1.0" encoding="utf-8"?>
<!-- Generator: Adobe Illustrator 18.1.1, SVG Export Plug-In . SVG Version: 6.00 Build 0)  -->
<svg version="1.1" xmlns="http://www.w3.org/2000/svg" xmlns:xlink="http://www.w3.org/1999/xlink" x="0px" y="0px"
	 viewBox="0 0 64 64" enable-background="new 0 0 64 64" xml:space="preserve">
<g id="Layer_2">
	<rect x="20.2" y="20.4" fill="#5191CD" width="19" height="12"/>
</g>
<g id="Layer_1">
	<g>
		<path fill-rule="evenodd" clip-rule="evenodd" fill="#FFFFFF" d="M29.8,26.5c0.2,0,0.3,0.2,0.4,0.2c0.2,0.1-0.8,0.4,0.2,1.1
			c0,0.4,0,0.7,0,0.8c-0.1,0.1,0,0.2,0,0.3c-0.2,0.1,0,0.6,0.2,0.5c0.1-0.1,0-0.2,0.1-0.4c-0.1-0.3,0.8-0.9,0.9-1.1
			c0,0,0-0.3,0.2-0.5c0.1-0.1-0.2-0.3-0.4-0.2c0,0,0-0.4-0.6-0.3c-0.2,0-0.4-0.1-0.4-0.1s-0.2-0.4-0.4-0.4c0,0,0-0.1-0.1-0.2
			c-0.1-0.1-0.4-0.1-0.4-0.2c0-0.1,0.3-0.1,0.4-0.2c0.1,0,0.1,0.2,0.2,0.1c0.1,0-0.1-0.1,0.1-0.3c0,0,0.2-0.2,0.4-0.4
			c0.1,0,0.2,0,0.2-0.1c0.1-0.2-0.2,0-0.1-0.2c0-0.1,0.6,0.1,0.6,0.1c0.1-0.1-0.4-0.1-0.2-0.2c0.1-0.1-0.6-0.6-0.8-0.5
			c-0.2,0.1,0,0.6-0.2,0.5c-0.2,0-0.4-0.2-0.6-0.4c-0.2-0.1,0.3-0.1,0.3-0.2c0.1-0.1,0-0.3-0.1-0.3c-0.3-0.1-0.7,0.1-0.9,0.1
			c-0.3-0.1-0.2-0.2-0.6-0.2c-0.2,0-0.4,0.1-0.7,0c-0.4-0.1-0.4,0.6-0.5,0.8c0.3-0.3,1.1-0.1,1,0.2c-0.1,0.4,0.6,0.9,0.7,1.2
			c0.1,0.1,0.3-0.1,0.5,0.4C29.5,26.5,29.7,26.4,29.8,26.5L29.8,26.5z M29.8,26.5"/>
		<path fill-rule="evenodd" clip-rule="evenodd" fill="#FFFFFF" d="M33.7,26.4c0-2.2-1.8-4-4-4c-2.2,0-4,1.8-4,4c0,2.2,1.8,4,4,4
			C31.9,30.4,33.7,28.6,33.7,26.4L33.7,26.4z M26,26.4c0-2,1.6-3.6,3.6-3.6s3.6,1.6,3.6,3.6s-1.6,3.6-3.6,3.6S26,28.4,26,26.4
			L26,26.4z M26,26.4"/>
	</g>
</g>
</svg>
