<?xml version="1.0" encoding="utf-8"?>
<!-- Generator: Adobe Illustrator 18.1.1, SVG Export Plug-In . SVG Version: 6.00 Build 0)  -->
<svg version="1.1" id="Layer_1" xmlns="http://www.w3.org/2000/svg" xmlns:xlink="http://www.w3.org/1999/xlink" x="0px" y="0px"
	 viewBox="0 0 64 64" enable-background="new 0 0 64 64" xml:space="preserve">
<g>
	<defs>
		<path id="SVGID_1_" d="M27,16.9c-7.7,3-14,8.4-16.8,14.6c-1.7,3.9-2,7.8-0.6,11.3c2.4,6.2,9.3,10,18.1,10c4,0,8.2-0.8,12.1-2.3
			c7.7-3,14-8.4,16.8-14.6c1.7-3.9,2-7.8,0.6-11.3c-2.4-6.2-9.3-10-18.1-10C35.1,14.5,30.9,15.3,27,16.9"/>
	</defs>
	<clipPath id="SVGID_2_">
		<use xlink:href="#SVGID_1_"  overflow="visible"/>
	</clipPath>
	
		<linearGradient id="SVGID_3_" gradientUnits="userSpaceOnUse" x1="-157.8598" y1="334.1497" x2="-156.8598" y2="334.1497" gradientTransform="matrix(49.3813 0 0 -49.3813 7804.0425 16534.3711)">
		<stop  offset="0" style="stop-color:#DB0962"/>
		<stop  offset="0.1744" style="stop-color:#BC156A"/>
		<stop  offset="0.4679" style="stop-color:#902075"/>
		<stop  offset="0.7132" style="stop-color:#6F247D"/>
		<stop  offset="0.8976" style="stop-color:#5A2782"/>
		<stop  offset="1" style="stop-color:#512785"/>
	</linearGradient>
	<rect x="8.3" y="14.5" clip-path="url(#SVGID_2_)" fill="url(#SVGID_3_)" width="50.3" height="38.2"/>
</g>
<g>
	<defs>
		<line id="SVGID_4_" x1="8.3" y1="14.1" x2="8.3" y2="53.1"/>
	</defs>
	<clipPath id="SVGID_5_">
		<use xlink:href="#SVGID_4_"  overflow="visible"/>
	</clipPath>
	<path clip-path="url(#SVGID_5_)" fill="#FFFFFF" d="M39.1,15c8.3,0,15.4,3.5,17.7,9.7c3.5,9-4.2,20.4-17.1,25.3
		c-4.1,1.6-8.2,2.3-12,2.3c-8.3,0-15.4-3.5-17.8-9.7c-3.5-9,4.2-20.4,17.1-25.3C31.2,15.7,35.3,15,39.1,15 M39.1,14.1
		c-4,0-8.3,0.8-12.3,2.3c-3.9,1.5-7.6,3.7-10.5,6.3c-2.9,2.5-5.1,5.5-6.5,8.5c-1.8,4-2,8-0.6,11.6c2.4,6.3,9.5,10.2,18.5,10.2
		c4,0,8.3-0.8,12.3-2.3c3.9-1.5,7.6-3.7,10.5-6.3C53.4,42,55.7,39,57,36c1.8-4,2-8,0.6-11.6C55.2,18.1,48.1,14.1,39.1,14.1"/>
</g>
<path fill="#FFE512" d="M48.9,37.8c0,0.9-0.7,1.7-1.6,1.7c-0.9,0-1.6-0.8-1.6-1.7c0-0.9,0.7-1.7,1.6-1.7
	C48.2,36.1,48.9,36.9,48.9,37.8"/>
<path fill="#FFFFFF" d="M53.3,36.9l-0.1-0.2l-4.5-7.9l-0.1-0.2c-0.3-0.5-0.7-0.8-1.3-0.8c-0.6,0-1,0.3-1.3,0.8l-0.2,0.2l-4.5,7.8
	l-0.1,0.2c-0.2,0.4-0.3,0.6-0.3,1c0,0.8,0.6,1.5,1.4,1.5c0.5,0,1-0.3,1.3-0.9l0.1-0.2l3.5-6.2l3.5,6.2l0.1,0.2
	c0.3,0.5,0.8,0.9,1.3,0.9c0.8,0,1.4-0.6,1.4-1.5C53.6,37.5,53.5,37.2,53.3,36.9 M43.1,29.2c0-0.8-0.6-1.4-1.4-1.4c0,0-0.1,0-0.3,0
	H30.3c-0.2,0-0.2,0-0.3,0c-0.6,0-1,0.3-1.3,0.8c-0.1,0.2-0.1,0.3-0.1,0.3l-2.4,5.4c0,0-2.2-4.9-2.3-5.1c-0.1-0.2-0.2-0.3-0.2-0.3
	c-0.4-0.8-0.8-1.1-1.4-1.1c-0.6,0-1,0.2-1.4,1.1c0,0-0.1,0.1-0.1,0.3c-0.1,0.2-2.3,5.2-2.3,5.2l-2.3-5.2l-0.1-0.2
	c-0.3-0.7-0.7-1.1-1.4-1.1c-0.5,0-1,0.3-1.3,0.7c-0.1,0.2-0.3,0.7,0,1.4c0,0.1,0,0.1,0.1,0.3c0.5,1.2,2.9,6.5,3.5,7.9
	c0.1,0.1,0.1,0.3,0.2,0.4c0.3,0.6,0.8,0.9,1.3,0.9c0.6,0,1-0.3,1.3-0.9c0.1-0.1,0.2-0.5,0.2-0.5l2.3-5.2c0,0,2.3,5.2,2.4,5.4
	c0.1,0.1,0.1,0.2,0.2,0.4c0.3,0.5,0.7,0.8,1.3,0.8c0.6,0,0.9-0.3,1.3-0.8c0-0.1,0.1-0.2,0.2-0.4c0.1-0.2,3.3-7.5,3.3-7.5l3.7,0
	l0,6.9l0,0.2c0,0.8,0.7,1.5,1.5,1.5c0.8,0,1.4-0.7,1.5-1.5l0-0.2v-6.9c0,0,3.5,0,3.7,0c0.2,0,0.2,0,0.3,0
	C42.5,30.7,43.1,30.1,43.1,29.2"/>
</svg>
